<svg xmlns="http://www.w3.org/2000/svg" viewBox="0 0 396.88 396.88"><defs/><path d="M321.16 0H75.72a8 8 0 00-8 8v380.88a8 8 0 004.8 7.36 7.995 7.995 0 003.2.64 7.996 7.996 0 005.36-2.08L198.44 288 315.8 394.8a8 8 0 0013.36-5.92V8a8 8 0 00-8-8zM203.8 271.28a8 8 0 00-10.8 0L83.72 370.8V16h229.44v354.8L203.8 271.28z"/><path d="M284.334 117.488a7.998 7.998 0 00-4.614-2.368l-51.2-7.44-23.2-46a8 8 0 00-14.32 0l-22.88 46.4-51.2 7.44a8 8 0 00-4.4 13.68l37.28 35.68-8.48 51.36a8 8 0 0011.6 8.4l45.76-24 45.76 24a8 8 0 0011.6-8.4l-8.96-51.36 37.04-36.08a8 8 0 00.214-11.312zM232.92 156.88a8.001 8.001 0 00-2.32 7.04l6.72 39.04-35.2-18.48a8.002 8.002 0 00-7.44 0l-35.12 18.48 6.72-39.12a8.001 8.001 0 00-2.32-7.04l-28.4-27.68 39.28-6.16a8 8 0 006-4.4l17.6-35.6 17.6 35.6a8 8 0 006 4.4l39.28 5.68-28.4 28.24z"/></svg>