<svg xmlns="http://www.w3.org/2000/svg" viewBox="0 0 603.511 603.511"><defs/><path d="M103.468 58.64v486.202c0 8.186 1.659 16.096 4.931 23.513a57.579 57.579 0 0013.173 18.669c10.894 10.31 25.135 15.987 40.101 15.987 12.797 0 24.977-4.138 35.224-11.963l104.859-80.09 104.857 80.089c10.247 7.826 22.428 11.963 35.225 11.963 14.967 0 29.208-5.678 40.102-15.988a57.557 57.557 0 0013.172-18.667c3.272-7.417 4.932-15.328 4.932-23.514V58.64c0-32.059-26.081-58.14-58.14-58.14H161.608c-32.059 0-58.14 26.082-58.14 58.14zm353.736 0v486.202c0 9.071-7.442 15.329-15.365 15.329-3.144 0-6.361-.985-9.222-3.169l-121.574-92.856a15.277 15.277 0 00-9.287-3.141 15.277 15.277 0 00-9.287 3.141l-121.574 92.855c-2.859 2.185-6.079 3.169-9.222 3.169-7.923 0-15.365-6.257-15.365-15.328V58.64c0-8.45 6.85-15.3 15.3-15.3h280.296c8.45 0 15.3 6.85 15.3 15.3z"/><path d="M161.673 603.511c-15.094 0-29.458-5.727-40.444-16.124a58.06 58.06 0 01-13.287-18.83c-3.3-7.48-4.974-15.459-4.974-23.715V58.64c0-32.334 26.306-58.64 58.64-58.64h280.295c32.334 0 58.64 26.306 58.64 58.64v486.201c0 8.256-1.674 16.234-4.975 23.716a58.059 58.059 0 01-13.285 18.828c-10.986 10.398-25.351 16.125-40.445 16.125-12.907 0-25.193-4.172-35.528-12.065l-104.554-79.857-104.555 79.858c-10.337 7.893-22.622 12.065-35.528 12.065zM161.608 1c-31.783 0-57.64 25.857-57.64 57.64v486.202c0 8.116 1.645 15.959 4.889 23.311a57.074 57.074 0 0013.06 18.508c10.8 10.222 24.919 15.851 39.757 15.851 12.685 0 24.76-4.102 34.921-11.86l105.162-80.321.304.231 104.857 80.089c10.159 7.759 22.234 11.86 34.921 11.86 14.838 0 28.958-5.63 39.758-15.852a57.07 57.07 0 0013.059-18.506c3.244-7.353 4.889-15.196 4.889-23.312V58.64c0-31.783-25.857-57.64-57.64-57.64H161.608zm280.231 559.671c-3.428 0-6.722-1.131-9.525-3.271L310.74 464.544c-2.603-1.987-5.709-3.038-8.983-3.038s-6.381 1.051-8.983 3.038L171.2 557.399c-2.801 2.141-6.095 3.271-9.525 3.271-7.63 0-15.865-6.052-15.865-15.828V58.64c0-8.712 7.088-15.8 15.8-15.8h280.296c8.712 0 15.8 7.088 15.8 15.8v486.202c-.002 9.777-8.237 15.829-15.867 15.829zM301.756 460.505c3.495 0 6.812 1.121 9.591 3.243l121.574 92.856c2.628 2.006 5.711 3.066 8.918 3.066 7.149 0 14.865-5.67 14.865-14.829V58.64c0-8.161-6.64-14.8-14.8-14.8H161.608c-8.161 0-14.8 6.639-14.8 14.8v486.202c0 9.159 7.716 14.828 14.865 14.828 3.208 0 6.292-1.061 8.918-3.066l121.574-92.855a15.67 15.67 0 019.591-3.244z"/></svg>