<svg xmlns="http://www.w3.org/2000/svg" viewBox="0 0 612 699.428"><defs/><path d="M459 0H196.714c-46.25 0-87.428 42.425-87.428 87.429l-25.267.59C37.791 88.019 0 129.853 0 174.857V612c0 45.004 41.179 87.428 87.429 87.428h327.857c46.249 0 87.428-42.424 87.428-87.428h21.857c46.25 0 87.429-42.424 87.429-87.428v-349.19zm-43.714 655.715H87.429c-22.95 0-43.714-21.441-43.714-43.715V174.857c0-22.272 18.688-42.993 41.638-42.993l23.933-.721v393.429c0 45.004 41.178 87.428 87.428 87.428H459c0 22.273-20.765 43.715-43.714 43.715zm153-131.143c0 22.271-20.765 43.713-43.715 43.713H196.714c-22.95 0-43.714-21.441-43.714-43.713V87.429c0-22.272 20.764-43.714 43.714-43.714h218.572c-.351 50.337 0 87.975 0 87.975 0 45.419 40.872 86.882 87.428 86.882h65.572zm-65.572-349.715c-23.277 0-43.714-42.293-43.714-64.981V44.348l109.286 130.509z"/></svg>